<?xml version="1.0" standalone="no"?>
<!DOCTYPE svg PUBLIC "-//W3C//DTD SVG 20010904//EN"
 "http://www.w3.org/TR/2001/REC-SVG-20010904/DTD/svg10.dtd">
<svg version="1.0" xmlns="http://www.w3.org/2000/svg"
 width="512.000000pt" height="512.000000pt" viewBox="0 0 512.000000 512.000000"
 preserveAspectRatio="xMidYMid meet">

<g transform="translate(0.000000,512.000000) scale(0.100000,-0.100000)"
fill="#000000" stroke="none">
<path d="M2270 3875 c-324 -59 -632 -239 -803 -468 -175 -236 -262 -460 -287
-743 -28 -309 73 -654 268 -914 114 -153 235 -258 412 -357 168 -95 416 -156
634 -157 36 0 52 4 62 19 12 16 14 220 14 1311 0 1162 -2 1294 -16 1308 -20
20 -175 20 -284 1z m178 -442 l-3 -308 -115 3 c-119 3 -278 18 -323 30 l-26 7
45 113 c24 63 59 137 78 165 49 73 148 187 188 217 44 33 130 80 146 80 10 0
12 -65 10 -307z m-308 263 c0 -2 -29 -38 -65 -81 -69 -84 -137 -206 -179 -323
-44 -124 -27 -117 -170 -69 -69 23 -137 51 -152 62 l-27 21 44 54 c95 117 309
263 461 315 73 24 88 28 88 21z m-416 -602 l98 -27 -5 -35 c-4 -18 -13 -97
-22 -175 -9 -78 -18 -161 -21 -184 l-5 -43 -235 0 c-180 0 -234 3 -234 13 0
35 30 191 50 256 23 78 90 239 115 277 l14 22 73 -38 c40 -21 117 -50 172 -66z
m341 -74 c44 -7 147 -15 230 -19 l150 -6 0 -180 0 -180 -274 -3 -274 -2 7 102
c5 90 29 257 42 296 2 7 12 11 21 8 10 -2 54 -10 98 -16z m-283 -625 c6 -108
28 -256 48 -324 5 -19 9 -36 7 -37 -1 -1 -46 -17 -100 -34 -54 -17 -126 -44
-160 -61 -34 -16 -67 -29 -73 -29 -13 0 -63 89 -112 199 -38 86 -78 237 -88
334 l-7 67 239 -2 239 -3 7 -110z m666 -87 c2 -192 2 -198 -18 -198 -65 0
-336 -24 -395 -35 -50 -9 -72 -10 -77 -2 -16 26 -58 311 -58 394 l0 43 273 -2
272 -3 3 -197z m2 -629 l0 -300 -22 7 c-46 14 -155 93 -214 155 -75 79 -120
148 -167 259 -49 116 -53 137 -30 144 51 15 223 32 346 34 l87 2 0 -301z
m-564 184 c60 -165 122 -281 203 -378 22 -27 41 -53 41 -57 0 -10 -127 35
-200 72 -108 55 -202 124 -278 205 -40 42 -72 83 -72 90 0 7 24 23 53 35 46
21 211 77 229 79 3 1 14 -20 24 -46z"/>
<path d="M2764 3871 c-51 -23 -89 -71 -104 -131 -8 -32 -10 -378 -8 -1200 3
-1149 3 -1155 24 -1195 11 -22 40 -53 63 -70 l43 -30 557 0 558 0 43 30 c30
20 51 46 67 81 l23 52 -2 1175 -3 1175 -30 43 c-16 23 -50 53 -74 66 l-44 23
-536 0 c-502 0 -539 -2 -577 -19z m1146 -1266 l0 -765 -565 0 -565 0 0 765 0
765 565 0 565 0 0 -765z"/>
</g>
</svg>
